# xmcd
#
# Track frame offsets:
#	150
#	13729
#	28502
#	47420
#	62310
#	84582
#	100797
#	117913
#	130437
#	141895
#
# Disc length: 2243 seconds
# Revision: 0
# Processed by: cddbd v1.5.2PL0 Copyright (c) Steve Scherf et al.
# Submitted via: dBpowerAMP V12.0
#
DISCID=7b08c10a
DTITLE=Memphis Slim and Willie Dixon - The Blues Every Which Way
DYEAR=1900
DGENRE=Blues
TTITLE0=Choo Choo (Vocal by Memphis Slim)
TTITLE1=3 O'clock Boogie
TTITLE2=Rub My Root (Vocal by Willie Dixon)
TTITLE3=C Rocker
TTITLE4=Home To Mama (Vocal by Willie Dixon)
TTITLE5=Shaky (Vocal by Willie Dixon)
TTITLE6=After Hours
TTITLE7=One More Time (Vocal by Willie Dixon)
TTITLE8=John Henry (Vocal by Memphis Slim)
TTITLE9=Now Howdy (Vocal by Willie Dixon)
EXTD=
EXTT0=
EXTT1=
EXTT2=
EXTT3=
EXTT4=
EXTT5=
EXTT6=
EXTT7=
EXTT8=
EXTT9=
PLAYORDER=
